<mxfile host="app.diagrams.net" modified="2021-06-25T09:24:22.201Z" agent="5.0 (Macintosh; Intel Mac OS X 10_15_7) AppleWebKit/537.36 (KHTML, like Gecko) Chrome/91.0.4472.38 Safari/537.36 Edg/91.0.864.19" etag="aYo01rzcTAsFT8BZo2mf" version="14.8.1" type="github">
  <diagram id="C5RBs43oDa-KdzZeNtuy" name="Page-1">
    <mxGraphModel dx="1025" dy="769" grid="1" gridSize="10" guides="1" tooltips="1" connect="1" arrows="1" fold="1" page="1" pageScale="1" pageWidth="827" pageHeight="1169" math="0" shadow="0">
      <root>
        <mxCell id="WIyWlLk6GJQsqaUBKTNV-0" />
        <mxCell id="WIyWlLk6GJQsqaUBKTNV-1" parent="WIyWlLk6GJQsqaUBKTNV-0" />
        <mxCell id="9f9BsHkCl7WKuh_PWg6J-3" style="edgeStyle=orthogonalEdgeStyle;rounded=0;orthogonalLoop=1;jettySize=auto;html=1;exitX=0.5;exitY=1;exitDx=0;exitDy=0;entryX=0.5;entryY=0;entryDx=0;entryDy=0;" edge="1" parent="WIyWlLk6GJQsqaUBKTNV-1">
          <mxGeometry relative="1" as="geometry">
            <mxPoint x="270" y="130" as="sourcePoint" />
            <mxPoint x="270" y="170" as="targetPoint" />
          </mxGeometry>
        </mxCell>
        <mxCell id="9f9BsHkCl7WKuh_PWg6J-1" value="结束" style="rounded=1;whiteSpace=wrap;html=1;" vertex="1" parent="WIyWlLk6GJQsqaUBKTNV-1">
          <mxGeometry x="207.5" y="660" width="110" height="30" as="geometry" />
        </mxCell>
        <mxCell id="9f9BsHkCl7WKuh_PWg6J-6" style="edgeStyle=orthogonalEdgeStyle;rounded=0;orthogonalLoop=1;jettySize=auto;html=1;exitX=0.5;exitY=1;exitDx=0;exitDy=0;entryX=0.5;entryY=0;entryDx=0;entryDy=0;" edge="1" parent="WIyWlLk6GJQsqaUBKTNV-1" source="9f9BsHkCl7WKuh_PWg6J-4" target="9f9BsHkCl7WKuh_PWg6J-5">
          <mxGeometry relative="1" as="geometry" />
        </mxCell>
        <mxCell id="9f9BsHkCl7WKuh_PWg6J-4" value="&lt;span&gt;获取x方向的拖动像素和判断y方向的拖动像素以及拖动方向&lt;/span&gt;" style="rounded=0;whiteSpace=wrap;html=1;" vertex="1" parent="WIyWlLk6GJQsqaUBKTNV-1">
          <mxGeometry x="207.5" y="170" width="135" height="50" as="geometry" />
        </mxCell>
        <mxCell id="9f9BsHkCl7WKuh_PWg6J-10" value="是" style="edgeStyle=orthogonalEdgeStyle;rounded=0;orthogonalLoop=1;jettySize=auto;html=1;" edge="1" parent="WIyWlLk6GJQsqaUBKTNV-1" source="9f9BsHkCl7WKuh_PWg6J-5" target="9f9BsHkCl7WKuh_PWg6J-9">
          <mxGeometry relative="1" as="geometry" />
        </mxCell>
        <mxCell id="9f9BsHkCl7WKuh_PWg6J-18" style="edgeStyle=orthogonalEdgeStyle;rounded=0;orthogonalLoop=1;jettySize=auto;html=1;exitX=0;exitY=0.5;exitDx=0;exitDy=0;" edge="1" parent="WIyWlLk6GJQsqaUBKTNV-1" source="9f9BsHkCl7WKuh_PWg6J-5" target="9f9BsHkCl7WKuh_PWg6J-17">
          <mxGeometry relative="1" as="geometry" />
        </mxCell>
        <mxCell id="9f9BsHkCl7WKuh_PWg6J-19" value="否" style="edgeLabel;html=1;align=center;verticalAlign=middle;resizable=0;points=[];" vertex="1" connectable="0" parent="9f9BsHkCl7WKuh_PWg6J-18">
          <mxGeometry x="-0.2" y="3" relative="1" as="geometry">
            <mxPoint as="offset" />
          </mxGeometry>
        </mxCell>
        <mxCell id="9f9BsHkCl7WKuh_PWg6J-5" value="x&amp;gt;10" style="rhombus;whiteSpace=wrap;html=1;" vertex="1" parent="WIyWlLk6GJQsqaUBKTNV-1">
          <mxGeometry x="235" y="259" width="85" height="80" as="geometry" />
        </mxCell>
        <mxCell id="9f9BsHkCl7WKuh_PWg6J-12" style="edgeStyle=orthogonalEdgeStyle;rounded=0;orthogonalLoop=1;jettySize=auto;html=1;exitX=0.5;exitY=1;exitDx=0;exitDy=0;entryX=0.5;entryY=0;entryDx=0;entryDy=0;" edge="1" parent="WIyWlLk6GJQsqaUBKTNV-1" source="9f9BsHkCl7WKuh_PWg6J-9">
          <mxGeometry relative="1" as="geometry">
            <mxPoint x="414" y="400" as="targetPoint" />
          </mxGeometry>
        </mxCell>
        <mxCell id="9f9BsHkCl7WKuh_PWg6J-13" value="是" style="edgeLabel;html=1;align=center;verticalAlign=middle;resizable=0;points=[];" vertex="1" connectable="0" parent="9f9BsHkCl7WKuh_PWg6J-12">
          <mxGeometry x="-0.3429" y="-1" relative="1" as="geometry">
            <mxPoint as="offset" />
          </mxGeometry>
        </mxCell>
        <mxCell id="9f9BsHkCl7WKuh_PWg6J-15" style="edgeStyle=orthogonalEdgeStyle;rounded=0;orthogonalLoop=1;jettySize=auto;html=1;exitX=1;exitY=0.5;exitDx=0;exitDy=0;entryX=0.562;entryY=0.033;entryDx=0;entryDy=0;entryPerimeter=0;" edge="1" parent="WIyWlLk6GJQsqaUBKTNV-1" source="9f9BsHkCl7WKuh_PWg6J-9" target="9f9BsHkCl7WKuh_PWg6J-14">
          <mxGeometry relative="1" as="geometry">
            <mxPoint x="735" y="510" as="targetPoint" />
          </mxGeometry>
        </mxCell>
        <mxCell id="9f9BsHkCl7WKuh_PWg6J-16" value="否" style="edgeLabel;html=1;align=center;verticalAlign=middle;resizable=0;points=[];" vertex="1" connectable="0" parent="9f9BsHkCl7WKuh_PWg6J-15">
          <mxGeometry x="-0.7315" y="3" relative="1" as="geometry">
            <mxPoint as="offset" />
          </mxGeometry>
        </mxCell>
        <mxCell id="9f9BsHkCl7WKuh_PWg6J-9" value="y&amp;gt;10" style="rhombus;whiteSpace=wrap;html=1;" vertex="1" parent="WIyWlLk6GJQsqaUBKTNV-1">
          <mxGeometry x="374" y="265" width="80" height="70" as="geometry" />
        </mxCell>
        <mxCell id="9f9BsHkCl7WKuh_PWg6J-41" style="edgeStyle=orthogonalEdgeStyle;rounded=0;orthogonalLoop=1;jettySize=auto;html=1;exitX=0.5;exitY=1;exitDx=0;exitDy=0;entryX=0.441;entryY=1.067;entryDx=0;entryDy=0;entryPerimeter=0;" edge="1" parent="WIyWlLk6GJQsqaUBKTNV-1" source="9f9BsHkCl7WKuh_PWg6J-14" target="9f9BsHkCl7WKuh_PWg6J-1">
          <mxGeometry relative="1" as="geometry">
            <mxPoint x="320" y="750" as="targetPoint" />
            <mxPoint x="735" y="540" as="sourcePoint" />
            <Array as="points">
              <mxPoint x="735" y="420" />
              <mxPoint x="735" y="710" />
              <mxPoint x="256" y="710" />
            </Array>
          </mxGeometry>
        </mxCell>
        <mxCell id="9f9BsHkCl7WKuh_PWg6J-14" value="x方向缩放" style="rounded=0;whiteSpace=wrap;html=1;" vertex="1" parent="WIyWlLk6GJQsqaUBKTNV-1">
          <mxGeometry x="663" y="390" width="130" height="30" as="geometry" />
        </mxCell>
        <mxCell id="9f9BsHkCl7WKuh_PWg6J-21" style="edgeStyle=orthogonalEdgeStyle;rounded=0;orthogonalLoop=1;jettySize=auto;html=1;exitX=0;exitY=0.5;exitDx=0;exitDy=0;entryX=0;entryY=0.5;entryDx=0;entryDy=0;" edge="1" parent="WIyWlLk6GJQsqaUBKTNV-1" source="9f9BsHkCl7WKuh_PWg6J-17" target="9f9BsHkCl7WKuh_PWg6J-1">
          <mxGeometry relative="1" as="geometry" />
        </mxCell>
        <mxCell id="9f9BsHkCl7WKuh_PWg6J-22" value="是" style="edgeLabel;html=1;align=center;verticalAlign=middle;resizable=0;points=[];" vertex="1" connectable="0" parent="9f9BsHkCl7WKuh_PWg6J-21">
          <mxGeometry x="-0.2941" y="-2" relative="1" as="geometry">
            <mxPoint as="offset" />
          </mxGeometry>
        </mxCell>
        <mxCell id="9f9BsHkCl7WKuh_PWg6J-28" style="edgeStyle=orthogonalEdgeStyle;rounded=0;orthogonalLoop=1;jettySize=auto;html=1;exitX=0.5;exitY=1;exitDx=0;exitDy=0;entryX=0.5;entryY=0;entryDx=0;entryDy=0;" edge="1" parent="WIyWlLk6GJQsqaUBKTNV-1" source="9f9BsHkCl7WKuh_PWg6J-17" target="9f9BsHkCl7WKuh_PWg6J-25">
          <mxGeometry relative="1" as="geometry" />
        </mxCell>
        <mxCell id="9f9BsHkCl7WKuh_PWg6J-29" value="否" style="edgeLabel;html=1;align=center;verticalAlign=middle;resizable=0;points=[];" vertex="1" connectable="0" parent="9f9BsHkCl7WKuh_PWg6J-28">
          <mxGeometry x="-0.3333" y="-2" relative="1" as="geometry">
            <mxPoint as="offset" />
          </mxGeometry>
        </mxCell>
        <mxCell id="9f9BsHkCl7WKuh_PWg6J-17" value="y&amp;lt;=10" style="rhombus;whiteSpace=wrap;html=1;" vertex="1" parent="WIyWlLk6GJQsqaUBKTNV-1">
          <mxGeometry x="60" y="259" width="85" height="80" as="geometry" />
        </mxCell>
        <mxCell id="9f9BsHkCl7WKuh_PWg6J-38" style="edgeStyle=orthogonalEdgeStyle;rounded=0;orthogonalLoop=1;jettySize=auto;html=1;exitX=0.5;exitY=1;exitDx=0;exitDy=0;entryX=0.25;entryY=0;entryDx=0;entryDy=0;" edge="1" parent="WIyWlLk6GJQsqaUBKTNV-1" source="9f9BsHkCl7WKuh_PWg6J-25" target="9f9BsHkCl7WKuh_PWg6J-1">
          <mxGeometry relative="1" as="geometry" />
        </mxCell>
        <mxCell id="9f9BsHkCl7WKuh_PWg6J-25" value="&lt;span&gt;y方向缩放&lt;/span&gt;" style="rounded=0;whiteSpace=wrap;html=1;" vertex="1" parent="WIyWlLk6GJQsqaUBKTNV-1">
          <mxGeometry x="63.75" y="510" width="77.5" height="30" as="geometry" />
        </mxCell>
        <mxCell id="9f9BsHkCl7WKuh_PWg6J-39" style="edgeStyle=orthogonalEdgeStyle;rounded=0;orthogonalLoop=1;jettySize=auto;html=1;exitX=0.5;exitY=1;exitDx=0;exitDy=0;entryX=0.75;entryY=0;entryDx=0;entryDy=0;" edge="1" parent="WIyWlLk6GJQsqaUBKTNV-1" source="9f9BsHkCl7WKuh_PWg6J-30" target="9f9BsHkCl7WKuh_PWg6J-1">
          <mxGeometry relative="1" as="geometry" />
        </mxCell>
        <mxCell id="9f9BsHkCl7WKuh_PWg6J-30" value="&lt;span&gt;xy方向缩放&lt;/span&gt;" style="rounded=0;whiteSpace=wrap;html=1;" vertex="1" parent="WIyWlLk6GJQsqaUBKTNV-1">
          <mxGeometry x="360" y="510" width="107.5" height="30" as="geometry" />
        </mxCell>
        <mxCell id="9f9BsHkCl7WKuh_PWg6J-32" style="edgeStyle=orthogonalEdgeStyle;rounded=0;orthogonalLoop=1;jettySize=auto;html=1;exitX=1;exitY=0.5;exitDx=0;exitDy=0;entryX=0.5;entryY=0;entryDx=0;entryDy=0;" edge="1" parent="WIyWlLk6GJQsqaUBKTNV-1" source="9f9BsHkCl7WKuh_PWg6J-31" target="9f9BsHkCl7WKuh_PWg6J-33">
          <mxGeometry relative="1" as="geometry">
            <mxPoint x="610" y="435" as="targetPoint" />
          </mxGeometry>
        </mxCell>
        <mxCell id="9f9BsHkCl7WKuh_PWg6J-37" value="是" style="edgeLabel;html=1;align=center;verticalAlign=middle;resizable=0;points=[];" vertex="1" connectable="0" parent="9f9BsHkCl7WKuh_PWg6J-32">
          <mxGeometry x="-0.1206" relative="1" as="geometry">
            <mxPoint as="offset" />
          </mxGeometry>
        </mxCell>
        <mxCell id="9f9BsHkCl7WKuh_PWg6J-36" value="否" style="edgeStyle=orthogonalEdgeStyle;rounded=0;orthogonalLoop=1;jettySize=auto;html=1;exitX=0.5;exitY=1;exitDx=0;exitDy=0;" edge="1" parent="WIyWlLk6GJQsqaUBKTNV-1" source="9f9BsHkCl7WKuh_PWg6J-31" target="9f9BsHkCl7WKuh_PWg6J-30">
          <mxGeometry relative="1" as="geometry" />
        </mxCell>
        <mxCell id="9f9BsHkCl7WKuh_PWg6J-31" value="拖动方向在右上角" style="rhombus;whiteSpace=wrap;html=1;" vertex="1" parent="WIyWlLk6GJQsqaUBKTNV-1">
          <mxGeometry x="374" y="400" width="80" height="70" as="geometry" />
        </mxCell>
        <mxCell id="9f9BsHkCl7WKuh_PWg6J-40" style="edgeStyle=orthogonalEdgeStyle;rounded=0;orthogonalLoop=1;jettySize=auto;html=1;exitX=0.5;exitY=1;exitDx=0;exitDy=0;entryX=1;entryY=0.5;entryDx=0;entryDy=0;" edge="1" parent="WIyWlLk6GJQsqaUBKTNV-1" source="9f9BsHkCl7WKuh_PWg6J-33" target="9f9BsHkCl7WKuh_PWg6J-1">
          <mxGeometry relative="1" as="geometry" />
        </mxCell>
        <mxCell id="9f9BsHkCl7WKuh_PWg6J-33" value="重置缩放" style="rounded=0;whiteSpace=wrap;html=1;" vertex="1" parent="WIyWlLk6GJQsqaUBKTNV-1">
          <mxGeometry x="530" y="510" width="110" height="30" as="geometry" />
        </mxCell>
        <mxCell id="9f9BsHkCl7WKuh_PWg6J-44" style="edgeStyle=orthogonalEdgeStyle;rounded=0;orthogonalLoop=1;jettySize=auto;html=1;exitX=0.5;exitY=1;exitDx=0;exitDy=0;entryX=0.5;entryY=0;entryDx=0;entryDy=0;" edge="1" parent="WIyWlLk6GJQsqaUBKTNV-1" source="9f9BsHkCl7WKuh_PWg6J-42" target="9f9BsHkCl7WKuh_PWg6J-43">
          <mxGeometry relative="1" as="geometry" />
        </mxCell>
        <mxCell id="9f9BsHkCl7WKuh_PWg6J-42" value="开始" style="rounded=1;whiteSpace=wrap;html=1;" vertex="1" parent="WIyWlLk6GJQsqaUBKTNV-1">
          <mxGeometry x="215" y="10" width="110" height="30" as="geometry" />
        </mxCell>
        <mxCell id="9f9BsHkCl7WKuh_PWg6J-43" value="&lt;span&gt;监听图表区域的鼠标左键拖动事件&lt;/span&gt;" style="rounded=0;whiteSpace=wrap;html=1;" vertex="1" parent="WIyWlLk6GJQsqaUBKTNV-1">
          <mxGeometry x="201.25" y="90" width="137.5" height="40" as="geometry" />
        </mxCell>
      </root>
    </mxGraphModel>
  </diagram>
</mxfile>
